# xmcd CD database file
# Generated: Thu Oct 3 11:23:16 2002 by KSCD
# 
# Track frame offsets:
#       150
#       7317
#       16820
#       23610
#       31400
#       43930
#       50180
#       58367
#       66470
#       74492
#       81992
#       90147
#       100975
#       108082
#       115057
#       123342
#       130932
#       138410
#       144310
#       149082
#       154342
#       161167
#       167045
#       175887
#       181877
#       187432
#       193990
#       200752
#       206857
#       219782
#
# Disc length: 3176 seconds
#
# Revision: 1
# Processed by: cddbd v1.4PL0 Copyright (c) Steve Scherf et al.
# Submitted via: Kscd 1.3.3
#
DISCID=d40c661e
DTITLE=Roland White - Roland White's Approach to Bluegrass Mandolin V2
DYEAR=1900
DGENRE=
TTITLE0=New Five Cents Slow
TTITLE1=New Five Cents Fast
TTITLE2=Spinning Wheel Slow
TTITLE3=Spinning Wheel Fast
TTITLE4=Road to Columbus Slow
TTITLE5=Road to Columbus Fast
TTITLE6=Gold Rush Slow
TTITLE7=Gold Rush Fast
TTITLE8=Wheel Hoss Slow
TTITLE9=Wheel Hoss Fast
TTITLE10=John Henry Slow
TTITLE11=John Henry Fast
TTITLE12=Blackberry Blossom Slow
TTITLE13=Blackberry Blossom Fast
TTITLE14=East Tennessee Blues Slow
TTITLE15=East Tennessee Blues Fast
TTITLE16=Pike County Breakdown Slow
TTITLE17=Pike County Breakdown Fast
TTITLE18=Wildwood Flower Slow
TTITLE19=Wildwood Flower Fast
TTITLE20=Blue Moon of Kentucky
TTITLE21=Amazing Grace in G
TTITLE22=Amazing Grace in E
TTITLE23=Kentucky Waltz
TTITLE24=Lonesome Road Blues Slow
TTITLE25=Lonesome Road Blues Fast
TTITLE26=Foggy Mountain Breakdown Slow
TTITLE27=Foggy Mountain Breakdown Fast
TTITLE28=Jerusalem Ridge Slow
TTITLE29=Jerusalem Ridge Fast
EXTD=
EXTT0=
EXTT1=
EXTT2=
EXTT3=
EXTT4=
EXTT5=
EXTT6=
EXTT7=
EXTT8=
EXTT9=
EXTT10=
EXTT11=
EXTT12=
EXTT13=
EXTT14=
EXTT15=
EXTT16=
EXTT17=
EXTT18=
EXTT19=
EXTT20=
EXTT21=
EXTT22=
EXTT23=
EXTT24=
EXTT25=
EXTT26=
EXTT27=
EXTT28=
EXTT29=
PLAYORDER=
